<svg xmlns="http://www.w3.org/2000/svg" xmlns:xlink="http://www.w3.org/1999/xlink" viewBox="0 0 196.51 119.76"><defs><clipPath id="a"><polygon points="115.15 19.59 13.63 25.5 13.63 10.92 115.15 5.01 115.15 19.59" style="fill:none"/></clipPath><clipPath id="b"><path d="M191.41,75.37l-28.54-4.55A5.87,5.87,0,0,1,158.24,65l.18-19a4.09,4.09,0,0,1,4.72-4.3l28.54,4.55a5.85,5.85,0,0,1,4.62,5.79l-.18,18.94A4.09,4.09,0,0,1,191.41,75.37Z" style="fill:none"/></clipPath></defs><circle cx="24.47" cy="24.47" r="24.47" style="fill:#edc80f"/><path d="M25.07,84.37a7.56,7.56,0,0,1-7.62-7.65V18.89a3.52,3.52,0,0,1,3.27-3.46l86.8-5a3.07,3.07,0,0,1,3.29,3.1V71.31a8.69,8.69,0,0,1-8.08,8.55L25.56,84.35ZM107.72,10.8h-.17L20.74,15.86a3.08,3.08,0,0,0-2.87,3V76.72a7.14,7.14,0,0,0,7.66,7.21l77.17-4.49,0,.21,0-.21a8.27,8.27,0,0,0,7.69-8.13V13.48a2.64,2.64,0,0,0-2.67-2.68Z" style="fill:#050821"/><g style="clip-path:url(#a)"><path d="M107.53,79.37l-86.8,5a2.86,2.86,0,0,1-3.07-2.88V18.89a3.3,3.3,0,0,1,3.07-3.25l86.8-5.05a2.86,2.86,0,0,1,3.07,2.89V76.12A3.29,3.29,0,0,1,107.53,79.37Z" style="fill:#050821"/></g><path d="M29,74.5a3.33,3.33,0,0,1-3.35-3.37V35.25a3.82,3.82,0,0,1,3.54-3.76l19.75-1.15a3.34,3.34,0,0,1,3.56,3.37V69.59a3.82,3.82,0,0,1-3.54,3.76L29.19,74.5ZM49.12,30.76h-.19L29.19,31.92A3.38,3.38,0,0,0,26,35.25V71.13a2.9,2.9,0,0,0,3.12,2.94l19.75-1.15v0a3.38,3.38,0,0,0,3.14-3.33V33.71a2.9,2.9,0,0,0-2.93-2.95Z" style="fill:#050821"/><path d="M58.34,72.79A3.33,3.33,0,0,1,55,69.42V42.12a3.81,3.81,0,0,1,3.54-3.75l19.75-1.15a3.34,3.34,0,0,1,3.57,3.36v27.3a3.82,3.82,0,0,1-3.55,3.76L58.55,72.79ZM78.48,37.64h-.19L58.55,38.79a3.38,3.38,0,0,0-3.15,3.33v27.3a2.9,2.9,0,0,0,3.12,2.94l19.75-1.15a3.39,3.39,0,0,0,3.15-3.33V40.58a2.92,2.92,0,0,0-.92-2.15A2.87,2.87,0,0,0,78.48,37.64Z" style="fill:#050821"/><path d="M29.58,53.33a1.24,1.24,0,0,1-.86-.34,1.27,1.27,0,0,1-.39-.92v-.16a1.4,1.4,0,0,1,1.3-1.38l18.8-1.09a1.19,1.19,0,0,1,.94.33,1.25,1.25,0,0,1,.39.92v.16a1.4,1.4,0,0,1-1.3,1.38h0l-18.8,1.09Zm18.93-3.48h0L29.66,51a1,1,0,0,0-.91,1v.16a.82.82,0,0,0,.26.61.78.78,0,0,0,.62.22l18.8-1.09a1,1,0,0,0,.91-1v-.16a.82.82,0,0,0-.26-.61A.79.79,0,0,0,48.51,49.85Z" style="fill:#050821"/><path d="M29.58,58.79a1.25,1.25,0,0,1-1.25-1.25v-.16A1.4,1.4,0,0,1,29.63,56l18.8-1.1a1.23,1.23,0,0,1,.94.34,1.25,1.25,0,0,1,.39.91v.16a1.4,1.4,0,0,1-1.3,1.38h0l-18.8,1.1Zm18.93-3.47h0l-18.8,1.1a1,1,0,0,0-.91,1v.16a.83.83,0,0,0,.26.61.86.86,0,0,0,.62.22l18.8-1.1a1,1,0,0,0,.91-1v-.16a.84.84,0,0,0-.83-.83Z" style="fill:#050821"/><path d="M29.66,64.25a1.3,1.3,0,0,1-.92-.36,1.33,1.33,0,0,1-.41-1,1.48,1.48,0,0,1,1.38-1.46l11.17-.65a1.26,1.26,0,0,1,1,.36,1.3,1.3,0,0,1,.42,1A1.49,1.49,0,0,1,40.9,63.6l-11.16.65Zm11.3-3H40.9l-11.16.65a1.06,1.06,0,0,0-1,1,.91.91,0,0,0,.28.67.89.89,0,0,0,.68.24l11.17-.65a1.06,1.06,0,0,0,1-1,.91.91,0,0,0-.28-.67A.89.89,0,0,0,41,61.23Z" style="fill:#050821"/><path d="M33.3,46.75a4.59,4.59,0,0,1-4.63-4.65,5.28,5.28,0,0,1,4.9-5.19,4.61,4.61,0,0,1,4.92,4.64,5.26,5.26,0,0,1-4.9,5.19Z" style="fill:#050821"/><path d="M82.7,18l-5.29.3a1.1,1.1,0,0,1-1.19-1.11h0a1.28,1.28,0,0,1,1.19-1.26l5.29-.31a1.1,1.1,0,0,1,1.17,1.12h0A1.28,1.28,0,0,1,82.7,18Z" style="fill:#fff"/><path d="M93.38,17.37l-5.3.31a1.1,1.1,0,0,1-1.18-1.11h0a1.27,1.27,0,0,1,1.18-1.26l5.3-.31a1.1,1.1,0,0,1,1.17,1.12h0A1.26,1.26,0,0,1,93.38,17.37Z" style="fill:#fff"/><path d="M104,16.76l-5.3.31A1.11,1.11,0,0,1,97.47,16h0a1.28,1.28,0,0,1,1.18-1.26l5.3-.3a1.09,1.09,0,0,1,1.17,1.11h0A1.28,1.28,0,0,1,104,16.76Z" style="fill:#fff"/><path d="M101.23,51.17l-4,.24a1.9,1.9,0,0,1-2-1.91v-4a2.19,2.19,0,0,1,2-2.15l4-.23a1.89,1.89,0,0,1,2,1.91v4A2.17,2.17,0,0,1,101.23,51.17Z" style="fill:#fff"/><path d="M97.09,51.62A2.1,2.1,0,0,1,95,49.5v-4a2.4,2.4,0,0,1,2.23-2.36l4-.23a2.08,2.08,0,0,1,1.59.56,2.12,2.12,0,0,1,.66,1.56v4a2.38,2.38,0,0,1-2.22,2.35l-4,.24Zm4.26-8.32h-.1l-4,.23a2,2,0,0,0-1.83,1.94v4a1.68,1.68,0,0,0,.53,1.24,1.66,1.66,0,0,0,1.28.46l4-.24h0A2,2,0,0,0,103.05,49V45a1.69,1.69,0,0,0-.53-1.25A1.66,1.66,0,0,0,101.35,43.3Z" style="fill:#050821"/><path d="M101.23,62.8l-4,.23a1.89,1.89,0,0,1-2-1.9v-4a2.17,2.17,0,0,1,2-2.14l4-.24a1.9,1.9,0,0,1,2,1.91v4A2.18,2.18,0,0,1,101.23,62.8Z" style="fill:#050821"/><path d="M90.76,51.78l-4,.24a1.9,1.9,0,0,1-2-1.91v-4a2.19,2.19,0,0,1,2-2.15l4-.23a1.89,1.89,0,0,1,2,1.9v4A2.17,2.17,0,0,1,90.76,51.78Z" style="fill:#fff"/><path d="M86.62,52.23a2.11,2.11,0,0,1-1.46-.57,2.08,2.08,0,0,1-.66-1.55v-4a2.4,2.4,0,0,1,2.23-2.36l4-.23a2.08,2.08,0,0,1,1.59.56A2.12,2.12,0,0,1,93,45.61v4A2.38,2.38,0,0,1,90.78,52h0l-4,.24Zm4.26-8.32h-.1l-4,.23a2,2,0,0,0-1.83,1.94v4a1.68,1.68,0,0,0,.53,1.24,1.66,1.66,0,0,0,1.28.46l4-.24a2,2,0,0,0,1.83-1.93v-4a1.68,1.68,0,0,0-.53-1.24A1.66,1.66,0,0,0,90.88,43.91Zm-.12,7.87h0Z" style="fill:#050821"/><path d="M90.76,63.41l-4,.23a1.89,1.89,0,0,1-2-1.9v-4a2.17,2.17,0,0,1,2-2.14l4-.24a1.9,1.9,0,0,1,2,1.91v4A2.18,2.18,0,0,1,90.76,63.41Z" style="fill:#fff"/><path d="M86.62,63.86a2.1,2.1,0,0,1-2.12-2.12v-4a2.39,2.39,0,0,1,2.23-2.35l4-.24A2.11,2.11,0,0,1,93,57.24v4a2.39,2.39,0,0,1-2.22,2.35h0l-4,.23Zm4.26-8.32h-.1l-4,.24a2,2,0,0,0-1.83,1.93v4a1.68,1.68,0,0,0,1.81,1.69l4-.23a2,2,0,0,0,1.83-1.93v-4A1.68,1.68,0,0,0,92.05,56,1.66,1.66,0,0,0,90.88,55.54Zm-.12,7.87h0Z" style="fill:#050821"/><path d="M105.83,53.13a.21.21,0,0,1-.19-.12.21.21,0,0,1,.09-.28A6.07,6.07,0,0,0,109,48a.21.21,0,0,1,.23-.19.21.21,0,0,1,.19.23,6.46,6.46,0,0,1-3.54,5.06Z" style="fill:#050821"/><path d="M100.86,43.12a.2.2,0,0,1-.14-.06.22.22,0,0,1,0-.3,5.7,5.7,0,0,1,5-1.77.21.21,0,0,1,.17.24.22.22,0,0,1-.24.18,5.3,5.3,0,0,0-4.6,1.64A.24.24,0,0,1,100.86,43.12Z" style="fill:#050821"/><path d="M91.24,110.76a3.4,3.4,0,0,1,.29-.26c0-8.6-1.64-17.12-2.58-24.09l-6.1,2.78s-4,4.51-4.79,9c-.44,2.52-.11,8.39-.06,15.44C82.74,114.23,87.73,114.46,91.24,110.76Z" style="fill:#fff"/><path d="M77.79,113.65l.42,0c0-2.12,0-4.13-.09-6a65.3,65.3,0,0,1,.15-9.48c.74-4.22,4.35-8.49,4.71-8.91l5.8-2.64c.2,1.43.42,2.93.65,4.5a137,137,0,0,1,1.89,19.47c0,.36.42.37.42,0a144.23,144.23,0,0,0-1.89-19.52c-.25-1.68-.48-3.26-.69-4.78a.21.21,0,0,0-.11-.16.22.22,0,0,0-.18,0L82.76,89l-.07,0c-.16.19-4,4.61-4.84,9.14a66.75,66.75,0,0,0-.15,9.57C77.73,109.56,77.77,111.55,77.79,113.65Z" style="fill:#050821"/><path d="M61.41,109.73a2.36,2.36,0,0,1,1.64.68,11.39,11.39,0,0,1,.86,1,80.28,80.28,0,0,0,9,2.29,27.37,27.37,0,0,0,9.72.3,34.46,34.46,0,0,0,1-6.28c.22-6-.87-24-.87-24l-18.67.85a39.74,39.74,0,0,0-2.9,24.11C61.28,109.06,61.34,109.39,61.41,109.73Z" style="fill:#fff"/><path d="M61.19,109.73a.22.22,0,1,0,.42-.07c-.07-.35-.12-.62-.18-1C59.93,100,60.88,92,64.26,84.83L82.59,84c.12,2,1.07,18.14.86,23.72a33.72,33.72,0,0,1-1,6.19.21.21,0,1,0,.42.06,34.84,34.84,0,0,0,1-6.24c.22-5.94-.86-23.78-.87-24a.22.22,0,0,0-.22-.2l-18.67.85a.22.22,0,0,0-.18.12C60.47,91.8,59.49,100,61,108.77Z" style="fill:#050821"/><path d="M71.86,32.19c-1.85-.42-4.94-4.06-2.66-6.68S76.3,23.4,77,27.08,73.53,32.56,71.86,32.19Z" style="fill:#050821"/><path d="M120.05,53.8c.6-.41-1.67-2-3-1.76l-1.92.41s.69-.34,1.84-1c1-.58,2.27-1.07,2.26-1.6,0-1.13-5.31.28-7.68,3-.3.21.89-2.4.17-3.28s-2.34,4.31-4,5.83c0,0-10.11,5.74-15.49,8.61a30.32,30.32,0,0,0-4.32-8.06l-9,5.68S86.81,71,92.16,73s17.58-14.21,17.58-14.21A13,13,0,0,0,114,57.39c.42-.29,2.84-1.58,1.56-3a5.53,5.53,0,0,1,1.53-.75C117.84,53.39,119.44,54.2,120.05,53.8Z" style="fill:#fff"/><path d="M93.16,73.38a2.9,2.9,0,0,1-1.07-.19c-5.35-2-13-11.08-13.35-11.46a.22.22,0,0,1,0-.17.25.25,0,0,1,.1-.15l9-5.68a.21.21,0,0,1,.28.06,32.14,32.14,0,0,1,4.27,7.88c5.26-2.81,14.73-8.19,15.24-8.48a13.86,13.86,0,0,0,2.16-3.46c.82-1.61,1.27-2.45,1.75-2.5a.41.41,0,0,1,.39.17c.53.64.2,2,0,2.8,2.17-2,6-3.31,7.18-2.88a.55.55,0,0,1,.41.52c0,.53-.74.92-1.6,1.37l-.77.41-.53.31.47-.1a4,4,0,0,1,3.35,1.59.43.43,0,0,1-.15.55,2.47,2.47,0,0,1-1.74,0,3.4,3.4,0,0,0-1.31-.14,5.22,5.22,0,0,0-1.29.6,1.36,1.36,0,0,1,.27,1c-.14,1-1.35,1.73-1.87,2l-.15.09A12.63,12.63,0,0,1,109.85,59C108.93,60.19,98.8,73.38,93.16,73.38ZM79.22,61.64C80.36,63,87.41,71,92.23,72.8c5.15,2,17.22-14,17.34-14.15a.22.22,0,0,1,.13-.08,13.09,13.09,0,0,0,4.15-1.36l.16-.1c.47-.29,1.56-1,1.67-1.75a1.06,1.06,0,0,0-.31-.86.18.18,0,0,1-.05-.16.2.2,0,0,1,.08-.15,6.15,6.15,0,0,1,1.61-.78,3.39,3.39,0,0,1,1.51.13c.54.12,1.16.25,1.41.08h0a.74.74,0,0,0-.21-.31,3.93,3.93,0,0,0-2.68-1.06l-1.91.41a.21.21,0,0,1-.25-.13.22.22,0,0,1,.11-.26s.69-.34,1.82-1c.25-.15.52-.29.78-.42.62-.33,1.38-.73,1.38-1,0,0,0-.08-.13-.13-1-.38-5.16.94-7.18,3.23l0,0a.28.28,0,0,1-.28,0c-.16-.11-.11-.27,0-.81.19-.7.55-2,.14-2.51-.28,0-1,1.35-1.44,2.25a14.06,14.06,0,0,1-2.27,3.59s0,0,0,0S97.6,61.32,92.28,64.16a.25.25,0,0,1-.19,0A.24.24,0,0,1,92,64,30.14,30.14,0,0,0,87.8,56.2Z" style="fill:#050821"/><path d="M74.54,41.82c-2.38-1.07-4.36-4.61-3.52-8.92s4.61-6.91,9.1-5.43c5.35,1.78,3.23,5.29,3.23,5.29-1.61-.82-.71-1.24-3.4-.21a8.41,8.41,0,0,0-3.33,2.07c-1.56-1-3-1.49-3.7-.46s.11,3.24,2.44,3.75A21.15,21.15,0,0,1,74.54,41.82Z" style="fill:#050821"/><path d="M69.75,51.4l-.23,1a13,13,0,0,0,7.25,1.41c4.34-.35,3.28-3.58,3.28-3.58-1.26-1.61-.68-6.56-.68-6.56l.1-.26c4.46,1,5.7-6.58,3.88-10.67-.79-1.79-5.92.56-6.73,1.86C75.41,33.53,74,33,73.06,34s-.31,3,2.3,3.92c.17,3.44-3.08,11.66-5.61,13.49" style="fill:#fff"/><path d="M75.61,54.09a12.73,12.73,0,0,1-6.2-1.49.2.2,0,0,1-.1-.22l.24-1a.22.22,0,0,1,.08-.13c2.48-1.8,5.59-9.83,5.52-13.17a3.91,3.91,0,0,1-2.65-2.51,1.77,1.77,0,0,1,.41-1.7c.88-.91,2.27-.73,3.67.46a9.15,9.15,0,0,1,5.66-2.41,1.38,1.38,0,0,1,1.3.77c1.35,3,1,7.6-.72,9.74a3.27,3.27,0,0,1-3.22,1.26l0,.08c0,.39-.5,4.91.65,6.37a.33.33,0,0,1,0,.06,3,3,0,0,1-.31,2.41A3.93,3.93,0,0,1,76.79,54C76.39,54.08,76,54.09,75.61,54.09Zm-5.85-1.77a13.19,13.19,0,0,0,7,1.3,3.53,3.53,0,0,0,2.83-1.27,2.57,2.57,0,0,0,.27-2c-1.26-1.68-.73-6.47-.7-6.67a.07.07,0,0,1,0-.05l.1-.26a.21.21,0,0,1,.24-.13,2.85,2.85,0,0,0,3-1.08c1.62-2,1.94-6.44.67-9.31a1,1,0,0,0-1-.51,8.59,8.59,0,0,0-5.42,2.4.18.18,0,0,1-.15.1.22.22,0,0,1-.17,0c-.48-.44-2.14-1.79-3.26-.64a1.38,1.38,0,0,0-.3,1.32,3.57,3.57,0,0,0,2.51,2.25.23.23,0,0,1,.15.19c.16,3.39-3,11.62-5.63,13.63Z" style="fill:#050821"/><path d="M69.39,51.42a9.81,9.81,0,0,0,8.5,1.2,3.67,3.67,0,0,0,2.42-2.78c3.2,1.55,11.8,9.86,8.92,35.38-7.93,5.7-19.57,2.67-24.52.88-5-3.34-4-19.78-2.47-25.75A13.77,13.77,0,0,1,69.39,51.42Z" style="fill:#00b6c4"/><path d="M80,49.64c3.54.51,10.18,3.58,12.21,9.13-.55,1-3.13,5.71-3.13,5.71S81.91,53,81.38,52.15,80,49.64,80,49.64Z" style="fill:#00b6c4"/><path d="M74.06,64l4,4.4c5.37-2.7,19.31-13.38,20.4-15.17s1.7-6.49,3.64-8.58c2.64-2.84,4.69-2.18,3.61-1.36a12,12,0,0,0-2.79,3,5.71,5.71,0,0,0,0,3,.57.57,0,0,0,.84.39,5.1,5.1,0,0,1,2.24-.82c.8-.15,1.79.11-.17,1.64a35,35,0,0,0-4.52,4C100,55.94,88.45,79.4,81.42,80.36S67.81,68.87,67.81,68.87A15.1,15.1,0,0,0,74.06,64Z" style="fill:#fff"/><path d="M80.66,80.62c-2.75,0-5.79-1.89-8.85-5.51A39.31,39.31,0,0,1,67.62,69a.21.21,0,0,1,.08-.28c.23-.13.5-.26.81-.42a13.59,13.59,0,0,0,5.39-4.38.21.21,0,0,1,.15-.09.24.24,0,0,1,.17.07l3.94,4.28c5.52-2.84,19.17-13.37,20.17-15a15.27,15.27,0,0,0,1.15-3.06c.61-2,1.3-4.25,2.52-5.56,1.61-1.74,3.13-2.3,3.87-2.08a.52.52,0,0,1,.39.37c0,.16,0,.4-.37.67a12,12,0,0,0-2.73,2.9,5.23,5.23,0,0,0,0,2.89.38.38,0,0,0,.2.26.37.37,0,0,0,.34,0,4.5,4.5,0,0,1,1.8-.74,3.45,3.45,0,0,0,.48-.1c.25-.05,1-.15,1.2.3s-.2.94-1.18,1.71a34.6,34.6,0,0,0-4.49,4c-.26.29-1,1.62-2.07,3.46-4,7-12.33,21.66-18,22.43A6.84,6.84,0,0,1,80.66,80.62ZM68.09,69c.84,1.51,7,12.05,13.3,11.19,5.42-.74,13.69-15.24,17.66-22.22a37.54,37.54,0,0,1,2.12-3.53,34,34,0,0,1,4.54-4c1.17-.92,1.06-1.21,1.06-1.21s-.31-.14-.72-.06a3.81,3.81,0,0,1-.52.1,4.31,4.31,0,0,0-1.66.69.77.77,0,0,1-1.15-.53,5.78,5.78,0,0,1,.06-3.16,12.48,12.48,0,0,1,2.85-3c.19-.14.22-.24.21-.25s0-.05-.16-.06c-.46-.07-1.77.25-3.38,2-1.15,1.24-1.82,3.44-2.42,5.39a15.52,15.52,0,0,1-1.19,3.16C97.51,55.29,83.46,66,78.21,68.6a.21.21,0,0,1-.25,0l-3.88-4.21a13.92,13.92,0,0,1-5.39,4.31Z" style="fill:#050821"/><path d="M86.48,59.87a.21.21,0,0,1-.18-.11,15.64,15.64,0,0,0-2.8-3.84.21.21,0,0,1,0-.3.2.2,0,0,1,.29,0,15.93,15.93,0,0,1,2.87,3.93.21.21,0,0,1-.09.28A.17.17,0,0,1,86.48,59.87Z" style="fill:#fff"/><path d="M69.56,56.26a29.29,29.29,0,0,0,5,5.61c.17.14.35.31.33.53a.59.59,0,0,1,0,.19c-1,2.45-4.83,6.28-8.3,6.34" style="fill:#00b6c4"/><path d="M66.54,69.14a.22.22,0,0,1-.21-.21.21.21,0,0,1,.21-.21c3.32-.06,7.15-3.75,8.1-6.2a.58.58,0,0,0,0-.13c0-.12-.12-.24-.26-.36a29.77,29.77,0,0,1-5-5.65.22.22,0,0,1,.06-.3.21.21,0,0,1,.29.06,28.94,28.94,0,0,0,5,5.57.89.89,0,0,1,.4.71.71.71,0,0,1-.06.25c-1,2.56-5,6.41-8.49,6.47Z" style="fill:#fff"/><path d="M63.81,85.29c2.82,1.45,15.27,6.48,25.42-.17.13,1.12-.23,1.47-.23,1.47A17.49,17.49,0,0,1,77.78,90a36.26,36.26,0,0,1-13.84-3.18.89.89,0,0,1-.49-.94A1.64,1.64,0,0,1,63.81,85.29Z" style="fill:#050821"/><path d="M71.87,33.17h-.08a5.44,5.44,0,0,1-2.68-2.47,4.45,4.45,0,0,1-.22-3.63.21.21,0,0,1,.27-.12.2.2,0,0,1,.12.27,4.08,4.08,0,0,0,.2,3.29A5,5,0,0,0,72,32.77a.21.21,0,0,1,.1.28A.2.2,0,0,1,71.87,33.17Z" style="fill:#050821"/><path d="M83.84,33.93h-.07a.21.21,0,0,1-.13-.27,4.31,4.31,0,0,0-.56-3.49.22.22,0,0,1,.35-.25A4.73,4.73,0,0,1,84,33.78.21.21,0,0,1,83.84,33.93Z" style="fill:#050821"/><path d="M72.61,45.05a.23.23,0,0,1-.2-.13.22.22,0,0,1,.12-.28,2.55,2.55,0,0,0,1.25-1.31,7.9,7.9,0,0,0,.55-1.87.21.21,0,0,1,.42.09,8.25,8.25,0,0,1-.59,2A3,3,0,0,1,72.69,45Z" style="fill:#050821"/><path d="M72.91,43.67a.23.23,0,0,1-.19-.1.22.22,0,0,1,.08-.29,1.9,1.9,0,0,0,.83-1,4,4,0,0,0,.09-1.58.21.21,0,0,1,.2-.23.21.21,0,0,1,.22.2A4.5,4.5,0,0,1,74,42.37a2.33,2.33,0,0,1-1,1.27A.19.19,0,0,1,72.91,43.67Z" style="fill:#050821"/><path d="M153.34,26.29c-4.92-5.1-12.54-6.89-16.85-7.52a2.88,2.88,0,0,0-3.28,2.85V53s17.86,7.56,19.6,15.29C153.48,55.58,153.34,26.29,153.34,26.29Z" style="fill:#fff"/><path d="M152.81,68.45a.2.2,0,0,1-.2-.16c-1.7-7.54-19.31-15.07-19.48-15.15A.21.21,0,0,1,133,53V21.62a3.08,3.08,0,0,1,3.52-3.06c4.19.61,12,2.4,17,7.58a.25.25,0,0,1,.06.15c0,.29.14,29.44-.53,42a.21.21,0,0,1-.19.2ZM133.42,52.81a79.22,79.22,0,0,1,9.05,4.71c5.55,3.38,9,6.59,10.19,9.55.58-12.7.47-39,.46-40.7-4.91-5-12.54-6.79-16.66-7.39a2.66,2.66,0,0,0-3,2.64Z" style="fill:#050821"/><path d="M138.14,27.41a36.27,36.27,0,0,1,9.75,3.8,1.62,1.62,0,0,1,.83,1.43l-.12,7.53a1.49,1.49,0,0,1-2.13,1.31c-4.39-1.9-7.57-3-9.16-3.55a1.65,1.65,0,0,1-1.14-1.55V28.8A1.53,1.53,0,0,1,138.14,27.41Z" style="fill:#050821"/><path d="M137.92,30.36v5.15a.76.76,0,0,0,.51.71l2.29.85a.69.69,0,0,0,.95-.64V31.15a.78.78,0,0,0-.55-.73l-2.3-.7A.68.68,0,0,0,137.92,30.36Z" style="fill:#fff"/><path d="M146.1,36l-.09,0a17.81,17.81,0,0,0-3.33-1.22.21.21,0,0,1,.08-.42,17.39,17.39,0,0,1,3.44,1.27.21.21,0,0,1,.09.28A.21.21,0,0,1,146.1,36Z" style="fill:#fff"/><path d="M144.41,33.76l-.07,0a10.85,10.85,0,0,0-1.66-.5.21.21,0,0,1-.16-.25.21.21,0,0,1,.25-.17,11.87,11.87,0,0,1,1.72.53.21.21,0,0,1,.12.27A.22.22,0,0,1,144.41,33.76Z" style="fill:#fff"/><path d="M146.1,37.3l-.09,0a17.55,17.55,0,0,0-3.33-1.23.21.21,0,0,1,.08-.41,17.62,17.62,0,0,1,3.44,1.26.21.21,0,0,1,.09.28A.2.2,0,0,1,146.1,37.3Z" style="fill:#fff"/><g style="opacity:0.8"><path d="M90.91,35c16.93,3.68,54.05,2.22,62.43-8.71,1.17,35.68-.53,41.95-.53,41.95S124.57,84.64,89,73.31a3.61,3.61,0,0,1-2.49-3.44V38.54A3.61,3.61,0,0,1,90.91,35Z" style="fill:#d6d8e5"/></g><path d="M114.64,77.49a84.1,84.1,0,0,1-25.81-4A3.59,3.59,0,0,1,86.34,70V38.26a3.6,3.6,0,0,1,4.39-3.51c8.76,1.94,22.27,2.4,34.42,1.18,14.35-1.45,24.3-4.92,28-9.77a.2.2,0,0,1,.23-.07.22.22,0,0,1,.15.19c1.16,35.31-.46,41.76-.53,42a.2.2,0,0,1-.1.12,74.58,74.58,0,0,1-18.67,6.82A86.85,86.85,0,0,1,114.64,77.49ZM89.94,35.08a3.22,3.22,0,0,0-2,.71,3.14,3.14,0,0,0-1.18,2.47V70a3.17,3.17,0,0,0,2.2,3,85.13,85.13,0,0,0,45.18,1.78,74.85,74.85,0,0,0,18.49-6.74c.18-.85,1.57-8.6.51-41.24-9.23,10.79-46.28,11.9-62.5,8.3A3.34,3.34,0,0,0,89.94,35.08Z" style="fill:#050821"/><path d="M123.26,44.41a44.6,44.6,0,0,0,12.22-2,2.16,2.16,0,0,1,2.86,2.06v8.86a2.16,2.16,0,0,1-1,1.8C134.32,57.22,128,58.71,123,58a2.19,2.19,0,0,1-1.87-2.16V46.58A2.17,2.17,0,0,1,123.26,44.41Z" style="fill:#050821"/><path d="M133.23,50.83a44.54,44.54,0,0,0,12.22-2,2.17,2.17,0,0,1,2.87,2.06v8.86a2.17,2.17,0,0,1-1,1.8C144.3,63.64,138,65.13,133,64.41a2.19,2.19,0,0,1-1.88-2.16V53A2.17,2.17,0,0,1,133.23,50.83Z" style="fill:#fff"/><path d="M135.77,64.81a19.81,19.81,0,0,1-2.79-.19,2.42,2.42,0,0,1-2.06-2.37V53a2.39,2.39,0,0,1,2.31-2.39h0a43.89,43.89,0,0,0,12.15-2,2.33,2.33,0,0,1,2.14.3,2.41,2.41,0,0,1,1,2v8.86a2.38,2.38,0,0,1-1.05,2C145,63.4,140.32,64.81,135.77,64.81ZM133.24,51a2,2,0,0,0-1.9,2v9.25a2,2,0,0,0,1.7,2c5.12.74,11.36-.89,14.21-2.82a2,2,0,0,0,.86-1.63V50.89a2,2,0,0,0-.84-1.61,1.89,1.89,0,0,0-1.75-.25,45,45,0,0,1-12.28,2Zm0-.21h0Z" style="fill:#050821"/><path d="M117.63,59v5.3a1.55,1.55,0,0,1-1,1.43,25.89,25.89,0,0,1-9.28,1.3,1.52,1.52,0,0,1-1.47-1.53V59.89a1.51,1.51,0,0,1,1.56-1.51,33.25,33.25,0,0,0,8.32-.89A1.53,1.53,0,0,1,117.63,59Z" style="fill:#08af93"/><path d="M66.83,105.46,66,93.29a.26.26,0,0,0-.52-.05l-3.2,11.88a100.68,100.68,0,0,1-22.11-5.38A2.41,2.41,0,0,0,37,102c0,2.22,0,5.33,0,8.91a2.42,2.42,0,0,0,1.67,2.35,125.21,125.21,0,0,0,32.05,6.24,2.41,2.41,0,0,0,2.53-2.36l.19-9.08a2.41,2.41,0,0,0-2.4-2.46C69.61,105.62,68.21,105.56,66.83,105.46Z" style="fill:#fff"/><path d="M70.81,119.76h-.13a125.68,125.68,0,0,1-32.1-6.25A2.62,2.62,0,0,1,36.76,111c.07-3.71.06-6.89,0-8.91a2.62,2.62,0,0,1,3.49-2.5,100.78,100.78,0,0,0,21.89,5.35l3.15-11.7a.46.46,0,0,1,.5-.35.46.46,0,0,1,.43.44l.77,12c1.36.09,2.7.14,4,.16a2.65,2.65,0,0,1,1.88.8,2.59,2.59,0,0,1,.73,1.88l-.19,9.08a2.64,2.64,0,0,1-2.62,2.57Zm-31.41-20a2.13,2.13,0,0,0-1.27.42,2.16,2.16,0,0,0-.92,1.81c0,2,0,5.21,0,8.92a2.18,2.18,0,0,0,1.53,2.14,125.49,125.49,0,0,0,32,6.23A2.2,2.2,0,0,0,73,117.18l.19-9.08a2.17,2.17,0,0,0-.61-1.57,2.24,2.24,0,0,0-1.58-.68c-1.36,0-2.77-.08-4.2-.18a.2.2,0,0,1-.19-.19l-.79-12.17s0,0,0,0,0,0-.06,0l-3.2,11.87a.21.21,0,0,1-.22.16,100.92,100.92,0,0,1-22.16-5.39A2.1,2.1,0,0,0,39.4,99.81Z" style="fill:#050821"/><path d="M41.31,104s10.07,4.62,27.1,5.82" style="fill:#fff"/><path d="M68.41,110h0c-16.86-1.19-27.07-5.79-27.17-5.84a.21.21,0,1,1,.18-.38c.1,0,10.24,4.62,27,5.8a.2.2,0,0,1,.2.22A.22.22,0,0,1,68.41,110Z" style="fill:#050821"/><path d="M62.36,112.13q2.85.36,6,.59" style="fill:#fff"/><path d="M68.41,112.93h0c-2-.14-4.07-.34-6.06-.59a.2.2,0,0,1-.18-.24.21.21,0,0,1,.23-.18c2,.25,4,.45,6,.59a.21.21,0,0,1,.2.23A.21.21,0,0,1,68.41,112.93Z" style="fill:#050821"/><path d="M41.31,106.91S48,110,59.65,111.75" style="fill:#fff"/><path d="M59.65,112h0c-11.56-1.77-18.33-4.83-18.4-4.86a.21.21,0,0,1-.1-.28.2.2,0,0,1,.28-.1c.06,0,6.79,3.07,18.29,4.83a.2.2,0,0,1,.17.24A.2.2,0,0,1,59.65,112Z" style="fill:#050821"/><path d="M41.31,109.71a59.58,59.58,0,0,0,9.25,3" style="fill:#fff"/><path d="M50.56,112.93h-.05a61,61,0,0,1-9.29-3,.21.21,0,0,1-.1-.28.2.2,0,0,1,.28-.1,60.62,60.62,0,0,0,9.21,3,.21.21,0,0,1,0,.41Z" style="fill:#050821"/><path d="M136.77,21.53l-6.67-.87a4,4,0,0,1-3.19-3.86l-.24-7.46a2.71,2.71,0,0,1,3-3l6.67.87A4,4,0,0,1,139.5,11l.24,7.47A2.71,2.71,0,0,1,136.77,21.53Z" style="fill:#fff"/><path d="M137.13,21.76a2.56,2.56,0,0,1-.39,0h0l-6.66-.86a4.23,4.23,0,0,1-3.38-4.06l-.24-7.47a3.35,3.35,0,0,1,1-2.59,2.69,2.69,0,0,1,2.2-.67l6.67.87A4.21,4.21,0,0,1,139.71,11l.24,7.47a3.33,3.33,0,0,1-1,2.6A2.72,2.72,0,0,1,137.13,21.76Zm-.33-.44a2.27,2.27,0,0,0,1.86-.57,2.89,2.89,0,0,0,.87-2.27L139.29,11a3.77,3.77,0,0,0-3-3.65l-6.66-.87a2.33,2.33,0,0,0-1.87.56,2.92,2.92,0,0,0-.87,2.27l.24,7.47a3.8,3.8,0,0,0,3,3.65l6.67.87Z" style="fill:#050821"/><path d="M134.82,11.59a1.53,1.53,0,0,0-.95-.93c-.52-.18-2.52-.7-2.54-.06a1.13,1.13,0,0,1-.12.52c-.21-.26-.71.37,0,.92a2.52,2.52,0,0,0,1.12,1.6h0a2.5,2.5,0,0,1-.29,1.61c-.22.39,2.12.48,2.12.48a11.3,11.3,0,0,1-.33-2,1.59,1.59,0,0,0,1-1.3C135.31,12.29,135.13,11.51,134.82,11.59Z" style="fill:#fff"/><path d="M134.19,15.83h0c-.47,0-2-.1-2.21-.43a.2.2,0,0,1,0-.2,2.42,2.42,0,0,0,.28-1.49,2.64,2.64,0,0,1-1.11-1.6.84.84,0,0,1-.39-.82A.39.39,0,0,1,131,11a.33.33,0,0,1,.14,0,1.75,1.75,0,0,0,.06-.36.33.33,0,0,1,.16-.29c.56-.39,2.49.24,2.51.25a1.82,1.82,0,0,1,1,.92.41.41,0,0,1,.29.31.63.63,0,0,1-.2.74,1.7,1.7,0,0,1-1,1.3,13.19,13.19,0,0,0,.33,1.87.1.1,0,0,1,0,.09A.09.09,0,0,1,134.19,15.83Zm-1.73-2.19a2.58,2.58,0,0,1-.3,1.67,5,5,0,0,0,1.9.3,10.28,10.28,0,0,1-.31-1.85.11.11,0,0,1,.07-.1,1.53,1.53,0,0,0,1-1.21.09.09,0,0,1,.06-.08.42.42,0,0,0,.14-.52c0-.09-.09-.17-.15-.16a.1.1,0,0,1-.09,0,.09.09,0,0,1,0-.08,1.47,1.47,0,0,0-.89-.83c-.51-.18-2-.53-2.32-.28a.15.15,0,0,0-.07.13,1,1,0,0,1-.14.56.1.1,0,0,1-.08.05.1.1,0,0,1-.09,0s0,0,0,0a.21.21,0,0,0-.12.16c0,.1,0,.35.34.63a.07.07,0,0,1,0,0,2.38,2.38,0,0,0,1.07,1.54.08.08,0,0,1,.05.09Z" style="fill:#050821"/><path d="M135.43,9.46c-.73.42-2.75-.78-3.5-.15-.26-.38-.56-.32-.72-.13-.46.34-.41,1.26-.28,1.6s.24.47.34.4a.38.38,0,0,0,.09-.38,1.37,1.37,0,0,0,1.14,0c.82.13,1.4.88,2.12.88a.77.77,0,0,0,.34-1.47S135.82,9.92,135.43,9.46Z" style="fill:#050821"/><path d="M135.09,9.82h0a4.21,4.21,0,0,1-1.29-.34,4.89,4.89,0,0,0-1.09-.31.9.9,0,0,0-.57.1.21.21,0,0,1,0,.23.22.22,0,0,1-.29.05.35.35,0,0,1-.13-.4,1,1,0,0,1,1.05-.4,5.18,5.18,0,0,1,1.19.34,4.12,4.12,0,0,0,1.17.31.21.21,0,0,1,.19.23A.2.2,0,0,1,135.09,9.82Z" style="fill:#050821"/><path d="M132.07,15c.54.21,1.44.61,2,.16,1.05-.29,3.34,1.76,3.73,3.1-4.41-.64-8.43-1.1-8.43-1.1C129.68,15.65,130.87,14.57,132.07,15Z" style="fill:#edc80f"/><path d="M113.66,34.3l-6.81.44a2.9,2.9,0,0,1-3.15-2.91V25.1a3.41,3.41,0,0,1,3.16-3.32l6.81-.44a2.9,2.9,0,0,1,3.14,2.91V31A3.39,3.39,0,0,1,113.66,34.3Z" style="fill:#fff"/><path d="M106.64,35a3.16,3.16,0,0,1-2.18-.85,3.08,3.08,0,0,1-1-2.28V25.1a3.61,3.61,0,0,1,3.35-3.53l6.81-.44a3.16,3.16,0,0,1,2.4.84,3.08,3.08,0,0,1,1,2.28V31a3.61,3.61,0,0,1-3.35,3.52l-6.81.44Zm7.23-13.41h-.19l-6.81.44a3.2,3.2,0,0,0-3,3.11v6.73a2.68,2.68,0,0,0,.84,2,2.74,2.74,0,0,0,2.08.73l6.81-.44a3.18,3.18,0,0,0,3-3.1V24.25a2.68,2.68,0,0,0-.84-2A2.71,2.71,0,0,0,113.87,21.55Z" style="fill:#050821"/><path d="M108.6,28.21c-1.06-.25-.87-1.95-.66-2.61a2.5,2.5,0,0,1,2.67-.94,6.32,6.32,0,0,1-1.1,1s-.81,0-1,.19a2.22,2.22,0,0,0-.29.75C108,26.74,108.6,28.21,108.6,28.21Z" style="fill:#050821"/><path d="M112,26.49c0-.21-.42-.6-.95-.67s-2.14-.28-2.6.11c-.18.16-.21.76-.21.76-.21-.19-.67.5.07.87a1.69,1.69,0,0,0,1.09,1.24,2.65,2.65,0,0,1-.72,1.58c-.36.3,2.53,0,2.53,0a5.48,5.48,0,0,1-.44-1.64A2.29,2.29,0,0,0,112,27.27C112.39,27,112.31,26.36,112,26.49Z" style="fill:#fff"/><path d="M109.18,30.72c-.65,0-.69-.1-.73-.2a.25.25,0,0,1,.09-.3,2.21,2.21,0,0,0,.62-1.27,1.93,1.93,0,0,1-1-1.25.8.8,0,0,1-.45-.7.62.62,0,0,1,.33-.53h0a1.24,1.24,0,0,1,.26-.69c.48-.41,1.81-.29,2.77-.16a1.52,1.52,0,0,1,1.07.66.38.38,0,0,1,.27.23.76.76,0,0,1-.25.9A2.54,2.54,0,0,1,111,28.84a5.33,5.33,0,0,0,.42,1.43.25.25,0,0,1,0,.19.25.25,0,0,1-.16.11C110.21,30.68,109.58,30.72,109.18,30.72Zm-.13-.42c.4,0,1.15-.05,1.85-.12a4.53,4.53,0,0,1-.35-1.47.2.2,0,0,1,.12-.18,2.12,2.12,0,0,0,1.1-1.3.21.21,0,0,1,.1-.14.39.39,0,0,0,.17-.4.25.25,0,0,1-.17,0,.22.22,0,0,1-.09-.17A1.07,1.07,0,0,0,111,26c-1.78-.24-2.28-.06-2.43.06a1.35,1.35,0,0,0-.14.61.24.24,0,0,1-.13.19.22.22,0,0,1-.16,0,.17.17,0,0,0,0,.14c0,.13.1.25.28.34a.22.22,0,0,1,.11.12,1.49,1.49,0,0,0,1,1.11.2.2,0,0,1,.15.2v0A3.1,3.1,0,0,1,109.05,30.3Zm3.15-3.81Z" style="fill:#050821"/><path d="M109.05,30.12a2.48,2.48,0,0,0,2-.23c1.09-.45,2.84,1,3.19,2.16-4.5.23-8.08.53-8.08.53C106.58,31.12,107.84,29.92,109.05,30.12Z" style="fill:#08af93"/><path d="M111.1,23.73a10,10,0,0,0,3.79,1.5,2.13,2.13,0,0,0,.61-.08,1.36,1.36,0,0,1-1.3.62,2.14,2.14,0,0,0,1-.07.67.67,0,0,1-.55.35.8.8,0,0,0,.44-.11,1.7,1.7,0,0,1-.83.73,2.47,2.47,0,0,1-3.18-1.42,1.33,1.33,0,0,0-.15-.32.86.86,0,0,0-.61-.24,3.56,3.56,0,0,0-.8,0c-.16,0-.37.11-.53,0C108.45,24.31,109.48,22.66,111.1,23.73Z" style="fill:#050821"/><path d="M108.9,24.85c0-.26.69-.5,1.31-.45s.87.24.82.35A14.17,14.17,0,0,1,108.9,24.85Z" style="fill:#08af93"/><path d="M111.48,24.93h0a3.12,3.12,0,0,0-3.45.49v.06h.58a.55.55,0,0,0-.18.13.85.85,0,0,0-.16.46c0,.1,0,.21,0,.31s0,.11.11.09a2.67,2.67,0,0,0,.54-.19,2,2,0,0,0,.51-.28,1,1,0,0,0,.21-.21,2.81,2.81,0,0,0,2.58.78s.12,0,.12.1A1.36,1.36,0,0,0,111.48,24.93Z" style="fill:#050821"/><path d="M112.35,26.44a3.76,3.76,0,0,1-.32.83l0,0a.1.1,0,0,0,0,.07,1.08,1.08,0,0,1-.13.29c-.06.11-.16.17-.22.28s-.22.24-.08.23A1.48,1.48,0,0,0,112.35,26.44Z" style="fill:#050821"/><path d="M173.91,110.91,162.06,109a3.85,3.85,0,0,1-3-3.8l.17-17.46A2.68,2.68,0,0,1,162.29,85l11.85,1.89a3.84,3.84,0,0,1,3,3.79L177,108.1A2.67,2.67,0,0,1,173.91,110.91Z" style="fill:#fff"/><path d="M174.36,111.16a2.59,2.59,0,0,1-.48,0L162,109.23a4.05,4.05,0,0,1-3.21-4L159,87.77a3.15,3.15,0,0,1,1.06-2.42,2.78,2.78,0,0,1,2.27-.61l11.85,1.89a4.05,4.05,0,0,1,3.21,4l-.17,17.47a3.15,3.15,0,0,1-1.06,2.42A2.75,2.75,0,0,1,174.36,111.16Zm-12.52-26a2.33,2.33,0,0,0-1.52.55,2.73,2.73,0,0,0-.91,2.1l-.17,17.47a3.63,3.63,0,0,0,2.86,3.58L174,110.71h0a2.38,2.38,0,0,0,1.93-.52,2.71,2.71,0,0,0,.91-2.1L177,90.63a3.64,3.64,0,0,0-2.85-3.58l-11.85-1.89A2.06,2.06,0,0,0,161.84,85.12Z" style="fill:#050821"/><path d="M172.35,93.82h0l-8.2-1.3a.21.21,0,1,1,.06-.42l8.21,1.31a.21.21,0,0,1,0,.42Z" style="fill:#050821"/><path d="M172.32,97.14h0l-8.2-1.3a.22.22,0,0,1-.18-.25.21.21,0,0,1,.24-.17l8.21,1.31a.21.21,0,0,1,.17.24A.21.21,0,0,1,172.32,97.14Z" style="fill:#050821"/><path d="M171.75,105.38h-.17l-2.23-.35a1.38,1.38,0,0,1-1.08-1.34l0-2.42a1.06,1.06,0,0,1,.37-.83,1,1,0,0,1,.79-.21l2.23.35a1.37,1.37,0,0,1,1.08,1.35l0,2.41a1.1,1.1,0,0,1-.37.83A1,1,0,0,1,171.75,105.38Zm-2.46-4.75a.55.55,0,0,0-.35.12.68.68,0,0,0-.22.52l0,2.41a.94.94,0,0,0,.73.92l2.23.36h0a.62.62,0,0,0,.46-.12.68.68,0,0,0,.22-.52l0-2.41a1,1,0,0,0-.72-.92l-2.24-.35Z" style="fill:#050821"/><path d="M170.51,104.24a.21.21,0,0,1-.16-.08l-1.17-1.33a.23.23,0,0,1,0-.3.21.21,0,0,1,.3,0l1,1.13,1.39-2a.21.21,0,0,1,.29-.06.22.22,0,0,1,.05.3l-1.54,2.22a.22.22,0,0,1-.16.09Z" style="fill:#050821"/><path d="M161.41,101.56l-11.85-1.89a3.85,3.85,0,0,1-3-3.79l.17-17.47a2.68,2.68,0,0,1,3.09-2.82l11.85,1.89a3.84,3.84,0,0,1,3,3.79l-.17,17.47A2.68,2.68,0,0,1,161.41,101.56Z" style="fill:#fff"/><path d="M161.87,101.8a4,4,0,0,1-.49,0l-11.85-1.89a4.07,4.07,0,0,1-3.21-4l.17-17.46A3.18,3.18,0,0,1,147.55,76a2.82,2.82,0,0,1,2.27-.61l11.85,1.89a4.06,4.06,0,0,1,3.21,4l-.16,17.46a3.19,3.19,0,0,1-1.07,2.42A2.74,2.74,0,0,1,161.87,101.8Zm-12.53-26a2.34,2.34,0,0,0-1.52.54,2.74,2.74,0,0,0-.91,2.1l-.16,17.47a3.62,3.62,0,0,0,2.85,3.58l11.85,1.89h0a2.4,2.4,0,0,0,1.93-.51,2.71,2.71,0,0,0,.91-2.1l.17-17.47a3.64,3.64,0,0,0-2.85-3.58L149.76,75.8A3,3,0,0,0,149.34,75.77Z" style="fill:#050821"/><path d="M159.86,84.46h0l-8.2-1.31a.22.22,0,0,1-.18-.24.22.22,0,0,1,.25-.18l8.2,1.31a.21.21,0,0,1,.17.24A.2.2,0,0,1,159.86,84.46Z" style="fill:#050821"/><path d="M159.82,87.78h0l-8.2-1.31a.21.21,0,1,1,.06-.42l8.21,1.31a.21.21,0,0,1,.17.24A.21.21,0,0,1,159.82,87.78Z" style="fill:#050821"/><path d="M159.12,95.81l-2.23-.36a1.13,1.13,0,0,1-.9-1.13l0-2.41a.8.8,0,0,1,.92-.84l2.23.36a1.13,1.13,0,0,1,.9,1.13L160,95A.8.8,0,0,1,159.12,95.81Z" style="fill:#edc80f"/><path d="M158,94.88a.24.24,0,0,1-.16-.07l-1.17-1.34a.23.23,0,0,1,0-.3.21.21,0,0,1,.3,0l1,1.14,1.39-2a.21.21,0,0,1,.34.24l-1.53,2.22a.22.22,0,0,1-.17.09Z" style="fill:#050821"/><path d="M192.1,75.63a4.59,4.59,0,0,1-.73-.06L162.83,71a6.1,6.1,0,0,1-4.8-6l.18-19a4.72,4.72,0,0,1,1.59-3.61,4.12,4.12,0,0,1,3.37-.9l28.54,4.55a6.08,6.08,0,0,1,4.8,6l-.17,18.95a4.76,4.76,0,0,1-1.59,3.6A4.07,4.07,0,0,1,192.1,75.63ZM162.45,41.94a3.61,3.61,0,0,0-2.38.86,4.22,4.22,0,0,0-1.44,3.28l-.18,19a5.65,5.65,0,0,0,4.45,5.58l28.54,4.55a3.73,3.73,0,0,0,3-.81,4.25,4.25,0,0,0,1.43-3.29l.18-19a5.63,5.63,0,0,0-4.44-5.57L163.1,42A3.56,3.56,0,0,0,162.45,41.94Z" style="fill:#050821"/><g style="clip-path:url(#b)"><polygon points="196.42 53.02 157.78 46.86 157.84 40.24 196.49 46.4 196.42 53.02" style="fill:#050821"/></g><path d="M171.47,63.27a3.57,3.57,0,0,1-3.09-4.77,2.54,2.54,0,0,1,1.39-1.43A3.21,3.21,0,0,1,173.72,59h0a3.45,3.45,0,0,1,.09,2.65,2.49,2.49,0,0,1-2.34,1.61Zm-.75-6a2.17,2.17,0,0,0-.79.15,2.11,2.11,0,0,0-1.16,1.2,3,3,0,0,0,.09,2.32,2.78,2.78,0,0,0,3.4,1.72,2.15,2.15,0,0,0,1.16-1.19,3,3,0,0,0-.09-2.33h0A3,3,0,0,0,170.72,57.31Z" style="fill:#050821"/><path d="M172.16,68.78a9.8,9.8,0,0,1-8.44-13.06,6.84,6.84,0,0,1,3.76-3.85l.19-.07.86,2-.38.17-.7-1.59a6.5,6.5,0,0,0-3.34,3.53,8.93,8.93,0,0,0,.26,6.92c1.87,4.24,6.31,6.52,10,5.18l-.7-1.57.39-.17.87,2-.2.08A6.8,6.8,0,0,1,172.16,68.78Z" style="fill:#050821"/><path d="M169.38,56.2c1.85-.74,4.12.39,5.06,2.53s.21,4.48-1.63,5.23-4.12-.39-5.06-2.53-.22-4.48,1.63-5.23m-1-2.36c-3,1.2-4.15,5-2.63,8.42s5.17,5.26,8.14,4.06,4.15-5,2.63-8.42-5.17-5.26-8.14-4.06Z" style="fill:#050821"/><path d="M188.29,60.45l-.22,0-1.21-.19a1.8,1.8,0,0,1-1.42-1.77v-1.3a1.41,1.41,0,0,1,.48-1.09,1.26,1.26,0,0,1,1-.28l1.21.19a1.8,1.8,0,0,1,1.42,1.77v1.31a1.41,1.41,0,0,1-.48,1.08A1.21,1.21,0,0,1,188.29,60.45Zm-1.55-4.24a.81.81,0,0,0-.54.19,1,1,0,0,0-.33.77v1.3a1.35,1.35,0,0,0,1.06,1.35l1.21.2a.87.87,0,0,0,.7-.19,1,1,0,0,0,.33-.77v-1.3a1.35,1.35,0,0,0-1.07-1.35l-1.2-.19Z" style="fill:#050821"/><path d="M188.05,65.32l-1.21-.2a1.58,1.58,0,0,1-1.24-1.56v-1.3a1.11,1.11,0,0,1,1.27-1.16l1.21.19a1.58,1.58,0,0,1,1.24,1.56v1.31A1.1,1.1,0,0,1,188.05,65.32Z" style="fill:#08af93"/><path d="M188,70.41l-1.2-.2a1.56,1.56,0,0,1-1.25-1.55V67.35a1.11,1.11,0,0,1,1.27-1.16l1.21.2a1.57,1.57,0,0,1,1.25,1.55l0,1.31A1.1,1.1,0,0,1,188,70.41Z" style="fill:#d6d8e5"/><path d="M103,101.91a.79.79,0,0,1-.39-.11c-.83-.46-1.76-1-2.45-1.31a.82.82,0,0,1-.42-.69.77.77,0,0,1,.38-.7c1.73-1,4.84-3.22,6.24-5.9a.47.47,0,0,0,0-.33.45.45,0,0,0-.22-.25l-3.21-1.57a.81.81,0,0,1,0-1.44l8.54-4.31a.8.8,0,0,1,1.14.52l2.08,8.37a.79.79,0,0,1-.24.78.76.76,0,0,1-.79.17l-3-1a.42.42,0,0,0-.53.24c-.7,1.68-2.77,5.77-6.82,7.47A.63.63,0,0,1,103,101.91Zm8.85-16.32a.43.43,0,0,0-.19,0L103.08,90a.42.42,0,0,0,0,.76l3.21,1.57a.81.81,0,0,1,.41.48.77.77,0,0,1,0,.61c-1.44,2.77-4.61,5-6.37,6a.42.42,0,0,0-.21.37.44.44,0,0,0,.23.37l2.45,1.32a.44.44,0,0,0,.37,0c3.91-1.65,5.93-5.64,6.62-7.28a.8.8,0,0,1,1-.45l3,1a.45.45,0,0,0,.43-.09.42.42,0,0,0,.12-.42l-2.07-8.37a.42.42,0,0,0-.24-.28A.39.39,0,0,0,111.81,85.59Z" style="fill:#050821"/><path d="M42.56,91.88c-3.3-1.39-5-4.73-5.56-6.1a.35.35,0,0,0-.44-.2l-2.47.83a.65.65,0,0,1-.65-.14.63.63,0,0,1-.19-.64L35,78.8a.62.62,0,0,1,.36-.44.67.67,0,0,1,.57,0l7,3.52a.65.65,0,0,1,.36.59.64.64,0,0,1-.36.58l-2.63,1.29a.35.35,0,0,0-.18.21.3.3,0,0,0,0,.26c1.14,2.19,3.68,4,5.09,4.82a.64.64,0,0,1,.31.58.62.62,0,0,1-.34.55c-.56.3-1.32.7-2,1.08a.72.72,0,0,1-.32.08A.56.56,0,0,1,42.56,91.88Z" style="fill:#08af93"/><path d="M140.89,3l-4.4-.46a1.06,1.06,0,0,0-1.2,1.07V6.91a1.36,1.36,0,0,0,1.2,1.32l.57.06.13,1c0,.16.23.22.3.09l.57-.95,2.83.29a1.06,1.06,0,0,0,1.2-1.07V4.3A1.36,1.36,0,0,0,140.89,3Z" style="fill:#fff"/><path d="M137.37,9.61h-.07a.37.37,0,0,1-.3-.32l-.1-.82-.43,0a1.56,1.56,0,0,1-1.36-1.51V3.58a1.21,1.21,0,0,1,.41-.94,1.25,1.25,0,0,1,1-.31l4.4.46a1.56,1.56,0,0,1,1.37,1.51V7.62a1.24,1.24,0,0,1-1.41,1.26l-2.71-.29-.51.86A.32.32,0,0,1,137.37,9.61Zm-1-6.92a.89.89,0,0,0-.6.22.91.91,0,0,0-.28.67V6.91a1.17,1.17,0,0,0,1,1.14l.72.08.14,1.08.6-1,2.94.31a.9.9,0,0,0,.71-.22.86.86,0,0,0,.29-.67V4.3a1.19,1.19,0,0,0-1-1.15l-4.4-.46Z" style="fill:#050821"/><ellipse cx="137.07" cy="5.55" rx="0.24" ry="0.27" transform="translate(33.82 95.88) rotate(-43.5)" style="fill:#050821"/><ellipse cx="138.18" cy="5.67" rx="0.24" ry="0.27" transform="translate(34.04 96.67) rotate(-43.5)" style="fill:#050821"/><ellipse cx="139.29" cy="5.78" rx="0.24" ry="0.27" transform="translate(34.27 97.47) rotate(-43.5)" style="fill:#050821"/><ellipse cx="140.39" cy="5.9" rx="0.24" ry="0.27" transform="translate(34.49 98.26) rotate(-43.5)" style="fill:#050821"/><path d="M117.63,16.08l-4.48.33a1.29,1.29,0,0,0-1.21,1.26v3.27A1.11,1.11,0,0,0,113.17,22l.58,0,.13.93a.16.16,0,0,0,.31,0l.58-1,2.87-.21a1.31,1.31,0,0,0,1.22-1.27V17.17A1.11,1.11,0,0,0,117.63,16.08Z" style="fill:#fff"/><path d="M114,23.23H114a.34.34,0,0,1-.27-.29l-.1-.75-.41,0a1.39,1.39,0,0,1-1-.35,1.25,1.25,0,0,1-.4-.93V17.68a1.5,1.5,0,0,1,1.39-1.46l4.48-.32a1.35,1.35,0,0,1,1,.35,1.24,1.24,0,0,1,.4.92v3.27a1.49,1.49,0,0,1-1.39,1.45l-2.78.2-.53.95A.37.37,0,0,1,114,23.23Zm-.12-1.44.14,1,.6-1.09,3-.22a1.12,1.12,0,0,0,1.05-1.08V17.17a.88.88,0,0,0-.28-.65,1,1,0,0,0-.74-.25l-4.48.32a1.12,1.12,0,0,0-1,1.08v3.27a.89.89,0,0,0,.28.66,1,1,0,0,0,.74.25Z" style="fill:#050821"/><path d="M116.67,18.77c0,.68-1.27,1.32-1.27,1.32s-1.27-.46-1.27-1.14.56-1.26,1.27-.86C116.1,17.59,116.67,18.09,116.67,18.77Z" style="fill:#00b6c4"/></svg>